<?xml version="1.0" encoding="utf-8"?>
<!-- Generator: Adobe Illustrator 25.2.1, SVG Export Plug-In . SVG Version: 6.00 Build 0)  -->
<svg version="1.1" id="Capa_1" xmlns="http://www.w3.org/2000/svg" xmlns:xlink="http://www.w3.org/1999/xlink" x="0px" y="0px"
	 viewBox="0 0 141.73 141.73" style="enable-background:new 0 0 141.73 141.73;" xml:space="preserve">
<style type="text/css">
	.st0{fill:#DD5C8E;}
</style>
<g>
	<g>
		<path class="st0" d="M883.16,6864.24c-2.74,0-4.61-1.26-5.62-3.77c-1.02-2.51-1.52-5.54-1.52-9.06c0-1.76,0.09-3.68,0.26-5.76
			c0.18-2.07,0.4-4.12,0.66-6.15c-1.94,3.88-4.04,7.63-6.29,11.25c-2.25,3.62-4.61,6.57-7.08,8.87c-2.47,2.29-5.07,3.44-7.81,3.44
			c-2.91,0-5.29-1.32-7.15-3.97c-1.85-2.65-2.78-5.78-2.78-9.4c0-2.56,0.42-5.51,1.26-8.87c0.84-3.35,1.87-6.66,3.11-9.92
			c1.23-3.26,2.51-5.96,3.84-8.07c1.32-2.12,2.47-3.18,3.44-3.18c0.44,0,1.37,0.24,2.78,0.73c1.41,0.49,2.12,1.12,2.12,1.92
			c-0.97,1.5-2.16,3.79-3.57,6.88c-1.41,3.09-2.65,6.42-3.71,9.99c-1.06,3.57-1.59,6.81-1.59,9.73c0,0.71,0.09,1.79,0.26,3.24
			c0.18,1.46,0.6,2.76,1.26,3.9c0.66,1.15,1.7,1.72,3.11,1.72c2.03,0,4.19-1.28,6.48-3.84c2.29-2.56,4.59-5.78,6.88-9.66
			c2.29-3.88,4.45-7.81,6.48-11.78c0.71-3.62,1.3-6.26,1.79-7.94c0.48-1.67,0.99-2.76,1.52-3.24c0.53-0.48,1.19-0.73,1.98-0.73
			c1.15,0,2.07,0.24,2.78,0.73c0.71,0.49,1.06,1.21,1.06,2.18c0,0.18-0.02,0.4-0.07,0.66c-0.05,0.27-0.11,0.53-0.2,0.79
			c-0.62,2.12-1.21,4.79-1.79,8.01c-0.57,3.22-1.04,6.55-1.39,9.99c-0.35,3.44-0.53,6.66-0.53,9.66c0,2.03,0.22,3.62,0.66,4.76
			c0.44,1.15,1.19,1.72,2.25,1.72c1.32,0,2.87-0.81,4.63-2.45c1.76-1.63,3.59-3.79,5.49-6.48c1.9-2.69,3.75-5.62,5.56-8.8
			c1.81-3.18,3.42-6.31,4.83-9.4c0-4.59,0.33-8.09,0.99-10.52c0.66-2.43,1.5-4.08,2.51-4.96c1.01-0.88,2.05-1.32,3.11-1.32
			c1.68,0,2.89,0.6,3.64,1.79c0.75,1.19,1.12,2.27,1.12,3.24c0,0.62-0.13,1.26-0.4,1.92c-0.26,0.66-0.62,1.39-1.06,2.18
			c-0.71,1.32-1.41,3.02-2.12,5.09c-0.71,2.07-1.06,4.92-1.06,8.54c0,1.41,0.13,2.91,0.4,4.5c0.26,1.59,0.84,2.91,1.72,3.97
			c0.88,1.06,2.25,1.59,4.1,1.59c1.85,0,3.64-0.73,5.36-2.18c1.72-1.46,3.42-3.99,5.09-7.61l1.72,1.32
			c-1.94,4.41-4.08,7.37-6.42,8.87c-2.34,1.5-4.57,2.25-6.68,2.25c-2.74,0-5.05-0.93-6.95-2.78c-1.9-1.85-3.29-4.63-4.17-8.34
			c-2.21,4.06-4.68,7.99-7.41,11.78c-2.74,3.79-5.56,6.9-8.47,9.33C888.72,6863.03,885.9,6864.24,883.16,6864.24z"/>
		<path class="st0" d="M985.72,6865.57c-5.38,0-9.37-1.63-11.98-4.9c-2.6-3.26-3.9-7.19-3.9-11.78c-3.79,5.03-8.16,8.96-13.1,11.78
			c-4.94,2.82-9.92,4.23-14.95,4.23c-5.38,0-9.42-1.48-12.11-4.43c-2.69-2.95-4.04-6.59-4.04-10.92c0-3.97,0.99-8.16,2.98-12.57
			c1.98-4.41,4.63-8.56,7.94-12.44c3.31-3.88,6.95-7.03,10.92-9.46c3.97-2.43,7.89-3.64,11.78-3.64c2.03,0,3.9,0.53,5.62,1.59
			c1.72,1.06,2.58,3.22,2.58,6.48c0,3.35-0.99,6.51-2.98,9.46c-1.98,2.96-4.59,5.58-7.81,7.87c-3.22,2.3-6.75,4.17-10.59,5.62
			s-7.65,2.36-11.45,2.71c-0.18,0.88-0.31,1.72-0.4,2.51c-0.09,0.79-0.13,1.54-0.13,2.25c0,1.77,0.31,3.51,0.93,5.23
			c0.62,1.72,1.68,3.13,3.18,4.23c1.5,1.1,3.62,1.65,6.35,1.65c4.68,0,9.31-1.65,13.9-4.96c4.59-3.31,8.6-7.39,12.04-12.24
			c0.79-3.62,2.2-7.23,4.23-10.85c2.03-3.62,4.48-6.9,7.34-9.86c2.87-2.95,5.98-5.34,9.33-7.15c3.35-1.81,6.75-2.71,10.19-2.71
			c2.03,0,3.9,0.53,5.62,1.59c1.72,1.06,2.58,3.22,2.58,6.48c0,4.5-1.52,8.45-4.57,11.84c-3.04,3.4-6.95,6.11-11.71,8.14
			c-4.76,2.03-9.66,3.31-14.69,3.84c-0.18,0.88-0.31,1.72-0.4,2.51c-0.09,0.79-0.13,1.54-0.13,2.25c0,1.77,0.29,3.57,0.86,5.43
			c0.57,1.85,1.59,3.38,3.04,4.57c1.46,1.19,3.55,1.79,6.29,1.79c3.79,0,7.59-1.12,11.38-3.37c3.79-2.25,7.32-5.2,10.59-8.87
			c3.26-3.66,6-7.61,8.2-11.84l1.59,1.19c-2.38,5.29-5.45,9.95-9.2,13.96c-3.75,4.02-7.81,7.15-12.17,9.4
			C994.52,6864.44,990.13,6865.57,985.72,6865.57z M935.3,6842.67c2.38-0.79,5.07-1.96,8.07-3.51c3-1.54,5.89-3.38,8.67-5.49
			s5.07-4.45,6.88-7.01c1.81-2.56,2.71-5.25,2.71-8.07c0-0.97-0.18-1.72-0.53-2.25c-0.35-0.53-1.1-0.79-2.25-0.79
			c-2.12,0-4.37,0.82-6.75,2.45c-2.38,1.63-4.68,3.77-6.88,6.42c-2.21,2.65-4.19,5.56-5.96,8.73
			C937.51,6836.32,936.18,6839.5,935.3,6842.67z M979.5,6842.67c2.38-0.79,4.98-1.85,7.81-3.18c2.82-1.32,5.51-2.89,8.07-4.7
			c2.56-1.81,4.68-3.88,6.35-6.22c1.67-2.34,2.51-4.92,2.51-7.74c0-0.97-0.22-1.79-0.66-2.45c-0.44-0.66-1.24-0.99-2.38-0.99
			c-2.82,0-5.67,1.24-8.54,3.71c-2.87,2.47-5.47,5.62-7.81,9.46C982.52,6834.4,980.74,6838.44,979.5,6842.67z"/>
		<path class="st0" d="M1027.15,6865.17c-3.79,0-6.71-1.1-8.73-3.31c-2.03-2.21-3.04-5.47-3.04-9.79c0-3.88,0.73-8.67,2.18-14.36
			c1.46-5.69,3.29-11.53,5.49-17.53c-0.88-0.18-1.72-0.33-2.51-0.46c-0.79-0.13-1.54-0.33-2.25-0.6v-2.38
			c0.7,0.09,1.54,0.18,2.51,0.26c0.97,0.09,2.07,0.18,3.31,0.26c1.85-4.76,3.84-9.37,5.96-13.83c2.12-4.45,4.21-8.42,6.29-11.91
			c2.07-3.48,4.06-6.26,5.96-8.34c1.9-2.07,3.51-3.11,4.83-3.11c0.7,0,1.34,0.24,1.92,0.73c0.57,0.49,0.86,1.21,0.86,2.18
			c0,1.5-0.93,3.95-2.78,7.34c-1.85,3.4-4.15,7.43-6.88,12.11c-2.74,4.68-5.38,9.75-7.94,15.22c0.79,0,1.61,0,2.45,0
			c0.84,0,1.65,0,2.45,0c2.91,0,5.98-0.04,9.2-0.13c3.22-0.09,6.46-0.31,9.73-0.66v2.38c-4.85,0.53-9.2,0.93-13.04,1.19
			c-3.84,0.27-7.26,0.4-10.26,0.4c-0.35,0-0.68,0-0.99,0c-0.31,0-0.64,0-0.99,0c-2.03,4.68-3.75,9.48-5.16,14.42
			c-1.41,4.94-2.12,9.75-2.12,14.43c0,3.79,0.57,6.51,1.72,8.14c1.15,1.63,3.04,2.45,5.69,2.45c4.59,0,9.09-2.03,13.5-6.09
			c4.41-4.06,8.29-9.57,11.65-16.54l1.72,1.32c-2.12,4.94-4.79,9.4-8.01,13.37c-3.22,3.97-6.77,7.1-10.65,9.4
			C1035.3,6864.02,1031.29,6865.17,1027.15,6865.17z"/>
		<path class="st0" d="M1059.3,6896.13c-2.21,0-4.15-0.6-5.82-1.79c-1.67-1.19-2.51-2.93-2.51-5.23c0-2.82,0.71-5.34,2.12-7.54
			c1.41-2.21,3.31-4.23,5.69-6.09c2.38-1.85,5.12-3.62,8.2-5.29c3.09-1.68,6.31-3.35,9.66-5.03c1.23-3.26,2.49-6.9,3.77-10.92
			c1.28-4.01,2.49-8.45,3.64-13.3c-2.82,4.59-5.85,8.54-9.06,11.84c-3.22,3.31-6.64,4.96-10.26,4.96c-1.68,0-3.33-0.37-4.96-1.12
			c-1.63-0.75-2.98-1.92-4.04-3.51c-1.06-1.59-1.59-3.62-1.59-6.09c0-2.47,0.42-5.34,1.26-8.6c0.84-3.26,1.87-6.44,3.11-9.53
			c1.23-3.09,2.51-5.64,3.84-7.67c1.32-2.03,2.47-3.04,3.44-3.04c0.35,0,0.99,0.13,1.92,0.4c0.93,0.26,1.81,0.64,2.65,1.12
			c0.84,0.49,1.26,0.99,1.26,1.52c-0.79,1.15-1.68,2.78-2.65,4.9c-0.97,2.12-1.92,4.48-2.84,7.08c-0.93,2.6-1.7,5.14-2.32,7.61
			c-0.62,2.47-0.93,4.59-0.93,6.35c0,1.59,0.35,2.87,1.06,3.84c0.7,0.97,1.94,1.46,3.71,1.46c1.67,0,3.55-0.81,5.62-2.45
			c2.07-1.63,4.15-3.73,6.22-6.29c2.07-2.56,3.99-5.29,5.76-8.21c0.26-0.97,0.51-1.96,0.73-2.98c0.22-1.01,0.42-2.05,0.6-3.11
			c0.26-1.23,0.9-2.67,1.92-4.3c1.01-1.63,2.62-2.45,4.83-2.45c0.44,0,0.88,0.02,1.32,0.07c0.44,0.05,0.93,0.16,1.46,0.33
			c0,1.41-0.42,4.04-1.26,7.87c-0.84,3.84-2.03,8.32-3.57,13.43c-1.54,5.12-3.37,10.37-5.49,15.75c4.15-1.59,8.2-4.21,12.17-7.87
			c3.97-3.66,7.19-8.54,9.66-14.62l1.72,1.32c-1.32,4.23-3.33,7.92-6.02,11.05c-2.69,3.13-5.71,5.82-9.06,8.07
			c-3.35,2.25-6.66,4.12-9.92,5.62c-2.3,5.65-4.79,10.94-7.48,15.88c-2.69,4.94-5.51,8.93-8.47,11.98
			C1065.41,6894.61,1062.39,6896.13,1059.3,6896.13z M1058.64,6891.9c1.32,0,3.55-1.74,6.68-5.23c3.13-3.49,6.46-9.6,9.99-18.33
			c-3.62,1.94-6.97,3.86-10.06,5.76c-3.09,1.9-5.56,3.95-7.41,6.15c-1.85,2.2-2.78,4.76-2.78,7.67c0,0.71,0.27,1.54,0.79,2.52
			C1056.39,6891.41,1057.32,6891.9,1058.64,6891.9z"/>
		<path class="st0" d="M806.98,6869.24c-4.2,0-8.17-0.76-11.91-2.28s-6.75-3.83-9.05-6.94c-2.3-3.11-3.44-7-3.44-11.67
			c0-4.04,0.8-7.2,2.39-9.45c1.59-2.26,3.56-3.85,5.89-4.79c2.33-0.93,4.55-1.4,6.65-1.4c-2.1,2.26-3.7,4.75-4.79,7.47
			c-1.09,2.72-1.63,5.45-1.63,8.17c0,2.88,0.64,5.56,1.93,8.05c1.28,2.49,3.25,4.49,5.89,6.01c2.64,1.52,5.99,2.28,10.04,2.28
			c3.5,0,6.92-0.64,10.27-1.93c3.34-1.28,6.09-3.19,8.23-5.72c2.14-2.53,3.21-5.66,3.21-9.4c0-3.34-0.86-6.22-2.57-8.64
			c-1.71-2.41-3.91-4.55-6.59-6.42c-2.68-1.87-5.54-3.66-8.58-5.37c-3.03-1.71-5.89-3.52-8.58-5.43c-2.68-1.91-4.88-4.1-6.59-6.6
			c-1.71-2.49-2.57-5.49-2.57-8.99c0-3.27,0.78-6.69,2.33-10.27c1.56-3.58,3.79-6.96,6.71-10.15c2.92-3.19,6.42-5.78,10.5-7.76
			c4.08-1.98,8.66-2.98,13.71-2.98c4.59,0,7.78,1.11,9.57,3.33c1.79,2.22,2.68,5,2.68,8.35c0,2.8-0.49,5.82-1.46,9.05
			c-0.97,3.23-2.16,6.3-3.56,9.22c-1.4,2.92-2.72,5.39-3.97,7.41c-1.4-0.31-2.39-0.91-2.98-1.81c-0.58-0.89-0.88-1.96-0.88-3.21
			c0-1.63,0.35-3.5,1.05-5.6c0.7-2.1,1.5-4.28,2.39-6.54c0.89-2.26,1.69-4.45,2.39-6.6c0.7-2.14,1.05-4.06,1.05-5.78
			c0-1.56-0.47-2.78-1.4-3.68c-0.93-0.89-2.65-1.34-5.14-1.34c-3.66,0-7.04,0.86-10.15,2.57c-3.11,1.71-5.84,3.91-8.17,6.59
			c-2.33,2.68-4.14,5.51-5.43,8.46c-1.28,2.96-1.93,5.64-1.93,8.05c0,2.88,0.84,5.35,2.51,7.41c1.67,2.06,3.83,3.93,6.48,5.6
			c2.64,1.67,5.47,3.35,8.46,5.02c2.99,1.67,5.82,3.52,8.46,5.54c2.64,2.02,4.8,4.42,6.48,7.18c1.67,2.76,2.51,6.13,2.51,10.1
			c0,4.05-0.9,7.61-2.68,10.68c-1.79,3.08-4.18,5.66-7.18,7.76c-3,2.1-6.28,3.69-9.86,4.79
			C814.14,6868.69,810.56,6869.24,806.98,6869.24z"/>
	</g>
	<path class="st0" d="M1095.61,6581.27c-0.32-0.18-0.39,0.09-0.49,0.28c-0.67,4.43-1.71,8.77-3.48,12.9
		c-1.46,3.41-3.43,6.48-6.29,8.93c-4.24,3.63-9.32,5.16-14.73,5.84c-2.85,0.36-5.71,0.48-8.58,0.67c-6.08,0.4-12.14,0.25-18.18-0.47
		c-7.42-0.89-14.76-2.31-22.03-4.05c-10.49-2.5-20.76-5.69-30.92-9.27c-13.13-4.63-26.05-9.84-38.95-15.06
		c-0.2-0.08-0.48-0.07-0.55-0.47c0.24-0.15,0.49-0.33,0.77-0.48c3.35-1.82,6.7-3.65,10.05-5.47c3.22-1.75,6.57-3.26,9.62-5.34
		c1.71-1.16,3.55-2.14,5.35-3.15c2-1.12,4.1-1.31,6.26-0.49c0.88,0.33,1.76,0.67,2.6,1.08c4.06,1.97,8.12,3.97,12.17,5.97
		c8.36,4.12,16.78,8.11,25.5,11.41c7.3,2.76,14.77,4.7,22.64,4.84c7.95,0.14,15.39-1.65,22.33-5.53c4.63-2.59,8.66-5.86,11.39-10.5
		c3.8-6.47,4.33-13.22,1.46-20.17c-2.02-4.89-5.44-8.65-9.73-11.66c-7.46-5.23-15.88-7.35-24.87-7.57c-4.1-0.1-8.17,0.28-12.24,0.75
		c-5.3,0.61-10.48,1.71-15.57,3.28c-9.17,2.83-17.77,6.97-26.21,11.48c-2.16,1.15-4.3,2.33-6.48,3.45
		c-1.24,0.63-2.54,1.11-3.94,1.23c-0.05-0.19-0.11-0.28-0.09-0.36c1-5.84,0.67-11.62-0.89-17.33c-0.34-1.24-0.33-1.25,0.89-1.39
		c3.94-0.45,7.78-1.34,11.45-2.89c4.73-2,8.87-4.84,11.82-9.1c2.96-4.29,3.67-8.93,1.23-13.74c-1.67-3.28-4.54-5.19-7.86-6.53
		c-6.82-2.76-13.88-3.15-21.07-2.12c-5.05,0.72-9.91,2.17-14.62,4.14c-1.08,0.45-1.09,0.44-1.78-0.4
		c-3.06-3.76-5.95-7.66-8.52-11.78c-0.42-0.67-0.89-1.32-1.11-2.09c0.37-0.22,0.68-0.07,1-0.02c1.72,0.25,3.44,0.48,5.17,0.72
		c3.12,0.44,6.25,0.79,9.39,1c2.77,0.18,5.55,0.39,8.3-0.15c4.42-0.87,8.04-3.05,10.3-6.99c1.99-3.46,3.06-7.17,3.03-11.29
		c-0.04-5.51-1.45-10.49-4.52-15.03c-2.8-4.13-6.6-6.74-11.52-7.74c-3.19-0.65-6.37-0.56-9.55-0.16
		c-5.48,0.69-10.58,2.51-15.37,5.29c-6.14,3.56-10.41,8.59-12.39,15.46c-0.97,3.37-1.35,6.82-1.24,10.33
		c0.02,0.5,0.16,1.03-0.17,1.62c-1.3-0.23-2.63-0.46-3.97-0.7c-5.7-1.02-11.43-1.76-17.25-1.58c-4.85,0.15-9.53,1.05-13.99,2.96
		c-3.67,1.57-7.02,3.62-9.54,6.83c-3.04,3.88-4.19,8.24-3.45,13.11c0.48,3.14,1.75,5.94,3.52,8.54c2.36,3.47,5,6.72,7.61,10
		c0.36,0.45,0.76,0.86,1.03,1.51c-0.9-0.17-1.59-0.48-2.34-0.57c-5.29-0.65-10.59-0.99-15.91-0.73c-3.24,0.16-6.46,0.64-9.57,1.63
		c-4.69,1.5-8.94,3.75-12.27,7.48c-2.58,2.88-3.97,6.26-3.89,10.17c0.08,3.89,1.58,7.22,4.12,10.11c4.33,4.92,9.95,7.13,16.34,7.53
		c3.38,0.22,6.77,0.14,10.15-0.2c7.04-0.71,13.75-2.62,20.17-5.55c6.42-2.92,12.3-6.72,17.85-11.05c1.34-1.04,2.65-2.11,4.21-2.83
		c0.67-0.31,1.34-0.63,2.12-0.62c-0.02,0.33-0.21,0.48-0.4,0.62c-0.76,0.57-1.12,1.3-1.25,2.26c-0.19,1.4-0.42,2.79-0.56,4.19
		c-0.47,4.81-0.53,9.6,0.95,14.25c2.23,6.98,6.67,11.91,13.7,14.3c1.08,0.37,2.19,0.62,3.3,0.93c-0.13,0.32-0.38,0.33-0.6,0.39
		c-2.4,0.61-4.76,0.34-7.09-0.39c-7.8-2.45-15.61-4.89-23.52-7.01c-11.32-3.03-22.73-5.55-34.41-6.77
		c-6.51-0.68-13.02-1.07-19.57-0.88c-4.33,0.12-8.64,0.4-12.94,0.89c-5.1,0.57-10.15,1.37-15.14,2.59
		c-8.39,2.04-16.29,5.22-23.44,10.15c-3.99,2.76-7.54,5.96-10.04,10.17c-4.37,7.34-4.54,14.72,0.19,21.96
		c3.35,5.13,8.17,8.58,13.72,10.94c8.52,3.62,17.45,5.57,26.68,6.07c4.8,0.26,9.6,0.07,14.37-0.55c7.78-1.01,15.29-3.05,22.59-5.91
		c12.67-4.97,24.93-10.86,37.16-16.8c7.2-3.49,14.39-6.99,21.61-10.44c1.69-0.81,3.36-1.69,5.18-2.22c2.31-0.68,4.58-0.8,6.91,0.08
		c5.81,2.18,11.67,4.24,17.49,6.4c16.14,5.99,32.27,12,48.4,18.02c0.37,0.14,0.82,0.19,1.14,0.72c-0.45,0-0.81,0.01-1.16,0
		c-2.74-0.06-5.45,0.26-8.11,0.89c-4.71,1.12-8.76,3.33-11.94,7.06c-2.55,3-4.21,6.45-5.4,10.16c-3.23,10.06-5.21,20.4-6.78,30.83
		c-0.89,5.9-1.51,11.85-2.28,17.77c-0.64,4.86-1.65,9.65-3.39,14.24c-1.08,2.86-2.11,5.78-4.34,8.01c-2.2,2.2-4.91,3.76-7.42,5.73
		c-1.07-2.39-2.37-4.52-3.28-6.85c-0.45-1.15-0.83-2.33-0.69-3.57c0.32-2.76,0.69-5.51,1.1-8.25c0.79-5.21,1.6-10.41,2.44-15.61
		c1.05-6.5,2.14-12.99,3.23-19.48c1.1-6.54,2.33-13.05,2.81-19.68c0.4-5.59,0.15-11.1-1.24-16.53c-1.03-4.04-2.47-7.92-5.11-11.22
		c-3.43-4.3-7.87-6.88-13.38-7.22c-5.44-0.33-10.04,1.74-13.79,5.64c-2.83,2.95-4.9,6.43-6.49,10.19c-1.86,4.37-2.87,8.93-3.4,13.64
		c-0.55,4.94-0.42,9.87-0.07,14.8c0.24,3.38,0.66,6.74,0.99,10.11c0.32,3.37,0.61,6.75,0.94,10.12c0.43,4.35,0.77,8.72,1.09,13.08
		c0.23,3.24,0.43,6.48,0.63,9.72c0.32,5.21,0.56,10.43,0.76,15.65c0.04,1.07-0.24,2.05-0.72,2.98c-1.15,2.22-2.81,4.09-4.19,6.23
		c-1.98-1.33-3.88-2.55-5.72-3.86c-1.17-0.83-1.99-1.94-2.49-3.33c-1.62-4.47-2.95-9.03-4.14-13.63
		c-2.02-7.84-3.41-15.81-5.08-23.72c-1.48-7-3.2-13.94-5.91-20.59c-2.12-5.21-4.65-10.2-8.2-14.6c-3.97-4.92-9-7.41-15.46-6.56
		c-4.7,0.62-8.24,2.88-10.26,7.19c-2.27,4.84-2.56,9.97-1.82,15.19c0.44,3.05,1.6,5.9,2.58,8.79c4.29,12.61,9.23,24.98,13.64,37.54
		c2.31,6.57,4.57,13.16,6.33,19.9c0.5,1.91,0.23,3.74-0.63,5.48c-0.39,0.79-0.96,1.4-1.91,1.49c-2,0.19-3.92-0.14-5.48-1.4
		c-3.75-3.06-6.9-6.59-8.93-11.12c-5.5-12.29-10.65-24.72-15.91-37.11c-2.46-5.8-4.68-11.71-7.1-17.53
		c-2.6-6.25-5.85-12.13-10.49-17.14c-3.81-4.11-8.21-7.19-13.92-7.96c-5.72-0.77-10.55,1.02-14.22,5.45
		c-4.01,4.85-5.21,10.45-3.64,16.57c0.87,3.37,1.78,6.73,2.82,10.05c1.43,4.59,3.13,9.08,5.5,13.28
		c8.94,15.88,18.05,31.65,27.27,47.36c8.58,14.61,17.21,29.2,25.85,43.78c2.18,3.68,5.2,6.42,9.36,7.73
		c0.99,0.31,1.95,0.7,2.92,1.05c7.97,2.86,15.97,5.62,24.16,7.77c8.65,2.27,17.42,3.87,26.32,4.83c5.38,0.58,10.78,0.88,16.19,1.01
		c2.96,0.08,5.93-0.05,8.89-0.15c4.38-0.16,8.74-0.48,13.08-0.99c6.49-0.75,12.93-1.86,19.3-3.33c11.16-2.58,22.01-6.14,32.54-10.64
		c2.1-0.9,3.93-2.19,5.52-3.85c1.85-1.94,3.12-4.23,4.26-6.62c3.66-7.69,7.29-15.4,11-23.07c5.71-11.78,11.73-23.4,18.58-34.57
		c5.66-9.23,11.52-18.34,16.99-27.68c4.21-7.2,7.57-14.73,8.91-23.04c0.69-4.29,1.05-8.6,0.1-12.91c-1.28-5.82-4.3-10.3-9.97-12.64
		c-3.54-1.46-7.25-1.6-10.96-0.88c-6.4,1.24-11.98,4.14-16.7,8.63c-4.58,4.37-7.71,9.7-10.11,15.5
		c-4.89,11.83-9.76,23.67-14.67,35.49c-1.28,3.09-2.6,6.16-4.02,9.18c-1.87,4-4.9,7.08-8.06,10.09c-2.06,1.96-4.42,2.37-7.03,2.05
		c-1.03-0.12-2.03-0.47-2.69-1.39c-1.42-1.99-2.13-4.21-1.74-6.65c0.51-3.17,1.52-6.21,2.64-9.21c2.12-5.65,4.83-11.04,7.43-16.47
		c3.97-8.28,8.06-16.5,11.82-24.87c1.99-4.43,3.83-8.89,4.61-13.73c0.83-5.12,0.43-10.04-2.15-14.65c-1.13-2.01-2.24-4.03-3.35-6.05
		c-0.15-0.27-0.43-0.53-0.14-1c2.07,0.4,4.18,0.8,6.28,1.24c6.31,1.3,12.64,2.51,19.08,2.9c7.59,0.46,15.14,0.08,22.54-1.9
		c7.4-1.98,14.27-5.09,20.27-9.91c3.77-3.03,6.39-6.89,7.61-11.61C1097.34,6590.23,1096.99,6585.72,1095.61,6581.27z
		 M988.12,6558.28c5.8-1.78,11.59-3.57,17.38-5.34c7.6-2.32,15.28-4.35,23.15-5.49c5.92-0.86,11.87-1.27,17.86-0.77
		c3.33,0.28,6.66,0.54,9.87,1.52c4.93,1.5,9.32,4.04,13.19,7.42c3.04,2.66,4.24,6.08,3.17,10.05c-0.84,3.12-3.03,5.13-5.95,6.38
		c-3.3,1.41-6.71,2.45-10.2,3.22c-5.56,1.22-11.17,1.33-16.83,1.01c-13.97-0.79-27.18-4.64-40.08-9.78c-4.81-1.91-9.54-4-14.24-6.17
		c-0.42-0.19-0.83-0.41-1.57-0.78C985.52,6559.05,986.82,6558.67,988.12,6558.28z M932.49,6583.27
		c-9.93,4.74-19.85,9.51-29.81,14.21c-8.34,3.93-16.83,7.51-25.59,10.43c-7.55,2.52-15.25,4.43-23.14,5.49
		c-5.36,0.72-10.77,1.1-16.18,0.87c-5.12-0.22-10.01-1.56-14.75-3.47c-2.71-1.1-5.33-2.37-7.86-3.83c-3.74-2.16-6.51-5.14-7.46-9.46
		c-1.11-5.01,0.34-9.29,4-12.84c1.64-1.59,3.64-2.67,5.61-3.76c7.3-4.01,14.99-7,23.2-8.53c4.16-0.77,8.36-1.28,12.58-1.61
		c4.69-0.36,9.39-0.62,14.09-0.47c6.58,0.2,13.14,0.69,19.67,1.56c11.1,1.48,22.01,3.89,32.83,6.77c4.18,1.11,8.33,2.33,12.49,3.5
		c0.41,0.11,0.8,0.25,1.29,0.41C933.22,6583.07,932.81,6583.11,932.49,6583.27z M975.6,6505.56c3.84-0.78,7.73-1.15,11.64-1.1
		c2.11,0.03,4.23,0.1,6.32,0.48c6.53,1.19,10.37,7.82,8,13.91c-1,2.59-2.95,4.32-5.36,5.57c-2.09,1.08-4.33,1.83-6.53,2.67
		c-3.07,1.18-6.2,2.18-9.44,2.85c-0.72,0.15-1.01-0.06-1.28-0.67c-3.25-7.23-7.75-13.65-12.72-19.78c-0.15-0.18-0.28-0.38-0.41-0.57
		c-0.05-0.07-0.06-0.17-0.13-0.41C968.95,6507.18,972.24,6506.25,975.6,6505.56z M966.93,6536.16c1.51,3.42,2.74,6.9,2.68,10.71
		c-0.01,0.38-0.01,0.75-0.05,1.13c-0.06,0.46-0.15,0.92-0.23,1.39c-0.52-0.12-28.38-13.68-28.94-14.14c0.6,0,1.05,0,1.5,0
		c7.85,0.07,15.7,0.13,23.55,0.2C966.05,6535.44,966.6,6535.41,966.93,6536.16z M949,6476.13c1.12-5.55,2.87-10.83,6.51-15.3
		c1.98-2.43,4.28-4.5,7.14-5.87c2.83-1.35,5.84-1.58,8.83-1.03c3.58,0.65,5.98,3,7.67,6.13c1.28,2.37,1.82,4.93,2.04,7.57
		c0.08,0.89,0.01,1.79,0.01,2.68c0.23,2.62-0.28,5.15-0.97,7.65c-1.26,4.58-4.49,7.23-8.86,8.47c-4.84,1.38-9.8,1.69-14.8,0.79
		c-1.85-0.33-3.7-0.69-5.56-0.92c-0.86-0.11-1.21-0.51-1.44-1.26C948.69,6482.11,948.39,6479.15,949,6476.13z M919.85,6538.03
		c-6.19,4.2-12.35,8.44-19.12,11.7c-5.25,2.53-10.71,4.34-16.49,5.15c-1.67,0.24-3.36,0.46-4.24,0.42c-4.15,0-7.36-0.58-10.4-2
		c-6.5-3.02-7.79-11.97-4.08-16.82c1.21-1.58,2.71-2.77,4.55-3.45c3.7-1.37,7.45-2.59,11.35-3.31c3.24-0.59,6.46-0.49,9.69-0.12
		c9.2,1.04,18.27,2.93,27.36,4.64c0.65,0.12,1.29,0.25,1.94,0.33c0.47,0.06,0.6,0.31,0.65,0.75
		C921.19,6536.48,920.94,6537.29,919.85,6538.03z M929.33,6525.5c-2,0.9-4.05,1.09-6.18,0.44c-2.45-0.75-4.68-1.96-6.91-3.17
		c-4.43-2.42-8.73-5.02-12.43-8.5c-2.07-1.95-3.95-4.07-5.01-6.75c-2-5.03-1.01-9.73,1.97-14.05c2.62-3.79,6.4-5.66,10.96-6.11
		c2.87-0.28,5.73-0.24,8.6-0.31c4.67-0.09,9.3,0.37,13.95,0.67c0.67,0.04,1.14,0.19,1.36,0.94c1.9,6.35,5.25,11.95,9.1,17.28
		c1.27,1.75,2.55,3.5,3.84,5.24c0.58,0.78,0.61,0.82-0.14,1.3c-5.17,3.36-10.04,7.16-15.08,10.7
		C932.09,6524.06,930.76,6524.87,929.33,6525.5z M938.24,6525.67c3.99-3.29,8.09-6.43,12.41-9.28c0.27-0.18,0.56-0.35,0.83-0.54
		c0.38-0.26,0.66-0.2,0.96,0.15c3.93,4.5,7.85,9,11.03,14.08c0.1,0.15,0.15,0.33,0.28,0.64c-0.81,0.23-1.46,0.16-2.11,0.13
		c-5.82-0.26-11.65-0.1-17.48-0.29c-2.21-0.07-4.41-0.14-6.62-0.15c-0.65,0-0.89-0.24-0.96-0.89
		C936.35,6527.22,936.34,6527.24,938.24,6525.67z M949.92,6572.89c-6.99-0.5-10.95-5.88-12.42-11.25
		c-1.44-5.27-1.18-10.52,0.86-15.63c0.44-1.09,0.67-2.23,0.88-3.46c2.08,0.66,4.01,1.53,5.94,2.36c7.41,3.16,14.57,6.78,21.46,10.95
		c1.13,0.68,1.12,0.68,0.7,1.99c-0.75,2.34-1.71,4.57-3.04,6.65c-0.47,0.73-1.03,1.31-1.8,1.74c-3.72,2.11-7.43,4.24-11.13,6.39
		C950.9,6572.9,950.46,6572.93,949.92,6572.89z M1020.65,6634.72c-0.44,7.02-2.97,13.38-6.07,19.55
		c-5.49,10.94-10.69,22.02-15.44,33.3c-1.46,3.47-2.87,6.96-4.24,10.47c-1.26,3.24-1.39,6.5,0.1,9.74
		c3.14,6.83,13.6,10.6,20.36,3.39c3.52-3.75,6.47-7.96,9.22-12.3c3.49-5.51,6.14-11.44,8.64-17.44c3.8-9.12,7.52-18.28,11.3-27.41
		c1.64-3.96,3.43-7.84,6.08-11.28c4.06-5.27,9.34-8.53,15.89-9.67c1.85-0.32,3.75-0.3,5.61,0.2c3.67,0.97,6.17,3.96,6.31,7.77
		c0.28,7.54-0.92,14.78-4.11,21.7c-4.49,9.72-9.76,19.01-15.4,28.09c-7.94,12.8-15.73,25.7-22.76,39.03
		c-4.61,8.75-8.89,17.66-12.56,26.85c-0.91,2.28-1.9,4.51-3.54,6.39c-2.16,2.48-4.82,4.18-7.89,5.29
		c-6.47,2.33-13.09,4.14-19.8,5.61c-6.43,1.41-12.92,2.46-19.47,3.19c-6.45,0.72-12.92,1.19-19.41,1.45
		c-3.06,0.12-6.12,0.14-8.58,0.21c-6.86,0.1-13.09-0.35-19.31-1.09c-12.65-1.51-24.99-4.4-37.03-8.54c-2.94-1.01-5.84-2.11-8.7-3.31
		c-3.18-1.33-5.65-3.37-7.44-6.4c-6.9-11.67-13.94-23.26-20.88-34.91c-10.12-16.98-20.2-34-30.17-51.07
		c-1.95-3.33-3.96-6.63-5.48-10.19c-1.53-3.58-2.6-7.27-2.45-11.21c0.15-3.85,1.27-7.4,3.37-10.63c0.18-0.28,0.4-0.53,0.59-0.79
		c1.64-2.18,3.84-2.75,6.4-2.21c6.71,1.44,11.53,5.31,14.52,11.46c1.21,2.5,2.32,5.05,3.44,7.59c5.56,12.57,10.87,25.24,16.18,37.92
		c1.73,4.12,3.27,8.32,4.91,12.48c1.88,4.77,4.42,9.15,7.93,12.93c2.74,2.95,5.89,5.28,9.97,6.02c4.09,0.75,7.45-0.5,9.89-3.9
		c2.46-3.42,3.14-7.31,2.59-11.42c-0.47-3.52-1.68-6.85-2.96-10.14c-4.37-11.22-8.84-22.41-13.24-33.63
		c-1.92-4.91-3.79-9.84-5.5-14.82c-1.13-3.29-1.21-6.64-0.89-10.04c0.17-1.78,0.44-3.55,1.22-5.19c0.65-1.38,1.51-2.6,2.73-3.54
		c2.18-1.69,4.65-1.92,7.24-1.33c1.73,0.39,3.23,1.28,4.62,2.36c4.68,3.64,7.74,8.41,9.8,13.89c1.73,4.6,2.77,9.38,3.61,14.2
		c1.46,8.29,2.8,16.6,4.26,24.88c0.76,4.3,1.42,8.64,2.84,12.8c1.69,4.93,3.97,9.6,7.19,13.69c2.96,3.76,7.01,4.89,11.64,3.83
		c4.51-1.03,7.3-3.87,8.5-8.31c0.34-1.28,0.43-2.6,0.56-3.91c0.75-7.27,1.13-14.55,0.9-21.86c-0.14-4.56-0.55-9.11-1.04-13.65
		c-0.33-3.09-0.63-6.18-0.95-9.26c-0.34-3.27-0.74-6.54-1.02-9.82c-0.51-5.82-1.06-11.64-0.62-17.48c0.35-4.66,1.41-9.2,2.64-13.69
		c0.55-2,1.11-3.99,2.18-5.79c2.17-3.64,5.19-6.17,9.44-7.03c1.86-0.38,3.68-0.21,5.4,0.52c4.62,1.97,7.66,5.35,8.93,10.25
		c0.3,1.15,0.35,2.33,0.39,3.5c0.22,5.79,0.5,11.58,0.31,17.37c-0.26,7.95-0.9,15.87-2.13,23.74c-1.29,8.23-2.93,16.38-4.47,24.56
		c-0.5,2.68-1.02,5.36-1.44,8.05c-0.26,1.68-0.15,3.39-0.04,5.08c0.12,1.87,0.28,3.75,0.76,5.58c1.1,4.14,3.83,6.41,8.44,6.89
		c3.86,0.41,7.11-1.03,9.94-3.53c3.45-3.04,5.91-6.82,7.87-10.93c2.62-5.49,4.01-11.33,4.88-17.32c0.89-6.09,1.83-12.18,2.71-18.28
		c0.97-6.75,2.09-13.47,3.21-20.2c0.69-4.14,1.51-8.24,3.61-11.95c2.4-4.23,5.74-7.44,10.15-9.48c2.77-1.28,5.64-1.77,8.63-0.76
		c3.53,1.19,5.54,3.78,6.55,7.22C1020.71,6630.19,1020.79,6632.44,1020.65,6634.72z"/>
	<g>
		<path class="st0" d="M844.57,6908.59c-0.35,2.23-1.43,3.35-3.24,3.35c-1.3,0-2.3-0.53-3.01-1.57c-0.71-1.05-1.08-2.59-1.08-4.62
			v-8.49c0-0.96-0.2-1.68-0.6-2.17c-0.4-0.49-1-0.73-1.81-0.73h-2.11v16.54h2.21v0.78h-8.71v-0.78h2.21v-31.25h-2.21v-0.78h9.49
			c1.99,0,3.53,0.66,4.59,1.98c1.06,1.32,1.6,3.17,1.6,5.55c0,2.35-0.39,4.08-1.18,5.2c-0.78,1.11-2,1.88-3.69,2.28v0.12h0.41
			c1.2,0,2.19,0.5,2.94,1.5c0.76,0.99,1.14,2.34,1.14,4.02v8.81c0,1.13,0.33,1.69,0.98,1.69c0.69,0,1.13-0.53,1.29-1.58
			L844.57,6908.59z M837.29,6890.33v-6.5c0-1.4-0.21-2.44-0.65-3.13s-1.09-1.04-1.96-1.04h-1.96v13.93h2.06
			c0.74,0,1.35-0.31,1.81-0.91C837.06,6892.07,837.29,6891.29,837.29,6890.33z"/>
		<path class="st0" d="M865.82,6911.69h-15.36v-0.78h2.21v-31.25h-2.21v-0.78h15.21v7.23h-0.79c-0.26-2.2-0.78-3.83-1.55-4.88
			c-0.76-1.04-1.84-1.57-3.23-1.57h-3.15v14.13h2.16c0.98,0,1.78-0.32,2.4-0.96c0.64-0.64,0.95-1.44,0.95-2.4v-1.28h0.78v10.53
			h-0.73v-0.3c0-1.44-0.3-2.6-0.89-3.46c-0.6-0.86-1.39-1.29-2.36-1.29h-2.31v16.29h2.56c1.61,0,2.84-0.63,3.65-1.89
			c0.83-1.26,1.45-3.22,1.89-5.89h0.76V6911.69z"/>
		<path class="st0" d="M872.85,6878.87h8.36c2.45,0,4.29,0.71,5.53,2.13s1.85,3.55,1.85,6.39c0,2.94-0.59,5.14-1.78,6.6
			c-1.19,1.46-3.24,2.19-6.18,2.19h-1.29v14.74h2.21v0.78h-8.71v-0.78h2.21v-31.25h-2.21V6878.87z M883.98,6889.83v-4.23
			c0-1.85-0.13-3.2-0.36-4.05c-0.23-0.86-0.65-1.39-1.26-1.59c-0.61-0.2-1.63-0.3-3.01-0.3v15.74h1.34c1.09,0,1.91-0.34,2.46-1.02
			C883.7,6893.69,883.98,6892.18,883.98,6889.83z"/>
		<path class="st0" d="M904.31,6878.47c2.59,0,4.5,1.33,5.75,4c1.25,2.67,1.88,6.8,1.88,12.39c0,5.73-0.65,10.02-1.94,12.88
			s-3.23,4.29-5.79,4.29c-2.54,0-4.45-1.46-5.77-4.39c-1.31-2.93-1.96-7.19-1.96-12.78c0-5.22,0.59-9.26,1.76-12.12
			c1.18-2.85,3.15-4.28,5.92-4.28H904.31z M907.26,6906.22v-22.14c0-1.46-0.3-2.63-0.89-3.52s-1.33-1.33-2.21-1.33
			c-0.88,0-1.59,0.48-2.15,1.43s-0.85,2.23-0.85,3.84v21.71c0,1.51,0.3,2.73,0.88,3.67c0.58,0.93,1.34,1.4,2.28,1.4
			c0.86,0,1.56-0.47,2.11-1.4C906.99,6908.95,907.26,6907.73,907.26,6906.22z"/>
		<path class="st0" d="M932.38,6887.86c-0.39-2.82-1.08-4.97-2.08-6.42c-0.99-1.46-2.15-2.2-3.49-2.2c-0.9,0-1.64,0.39-2.25,1.19
			c-0.6,0.79-0.9,1.82-0.9,3.1c0,1.44,0.31,2.78,0.93,4c0.63,1.23,1.81,2.8,3.55,4.71c2.45,2.67,4.17,4.94,5.14,6.8
			c0.98,1.86,1.46,3.72,1.46,5.56c0,2.13-0.66,3.91-1.98,5.32c-1.33,1.41-3.15,2.11-5.5,2.11c-1.3,0-2.56-0.51-3.8-1.53
			c-0.49-0.42-0.84-0.63-1.04-0.63c-0.88,0-1.36,0.61-1.46,1.81h-0.75v-10.23h0.75c0.38,3.16,1.16,5.59,2.38,7.28
			c1.2,1.69,2.53,2.55,3.98,2.55c1.18,0,2.08-0.39,2.71-1.19c0.64-0.79,0.96-1.91,0.96-3.37c0-1.59-0.43-3.18-1.28-4.76
			c-0.85-1.58-2.29-3.46-4.34-5.64c-1.85-1.96-3.19-3.72-4.02-5.25c-0.84-1.54-1.25-3.05-1.25-4.55c0-2.57,0.63-4.55,1.89-5.95
			s2.84-2.1,4.77-2.1c1.06,0,2.23,0.38,3.47,1.16c0.58,0.37,0.98,0.55,1.21,0.55c0.63,0,0.94-0.38,0.94-1.13v-0.18h0.78v8.99H932.38
			z"/>
		<path class="st0" d="M958.34,6887.56h-0.79c-0.25-2.78-0.8-4.8-1.66-6.04c-0.85-1.24-2.14-1.86-3.85-1.86v31.25h2.21v0.78h-8.71
			v-0.78h2.21v-31.25c-1.73,0-3.03,0.62-3.88,1.86c-0.86,1.24-1.4,3.26-1.64,6.04h-0.78v-8.69h16.88V6887.56z"/>
		<path class="st0" d="M980.45,6911.69h-15.36v-0.78h2.21v-31.25h-2.21v-0.78h15.21v7.23h-0.79c-0.26-2.2-0.78-3.83-1.55-4.88
			c-0.76-1.04-1.84-1.57-3.23-1.57h-3.15v14.13h2.16c0.98,0,1.78-0.32,2.4-0.96c0.64-0.64,0.95-1.44,0.95-2.4v-1.28h0.78v10.53
			h-0.73v-0.3c0-1.44-0.3-2.6-0.89-3.46c-0.6-0.86-1.39-1.29-2.36-1.29h-2.31v16.29h2.56c1.61,0,2.84-0.63,3.65-1.89
			c0.83-1.26,1.45-3.22,1.89-5.89h0.76V6911.69z"/>
		<path class="st0" d="M1005.84,6908.59c-0.35,2.23-1.43,3.35-3.24,3.35c-1.3,0-2.3-0.53-3.01-1.57c-0.71-1.05-1.08-2.59-1.08-4.62
			v-8.49c0-0.96-0.2-1.68-0.6-2.17c-0.4-0.49-1-0.73-1.81-0.73h-2.11v16.54h2.21v0.78h-8.71v-0.78h2.21v-31.25h-2.21v-0.78h9.49
			c1.99,0,3.53,0.66,4.59,1.98c1.06,1.32,1.6,3.17,1.6,5.55c0,2.35-0.39,4.08-1.18,5.2c-0.78,1.11-2,1.88-3.69,2.28v0.12h0.41
			c1.2,0,2.19,0.5,2.94,1.5c0.76,0.99,1.14,2.34,1.14,4.02v8.81c0,1.13,0.33,1.69,0.98,1.69c0.69,0,1.13-0.53,1.29-1.58
			L1005.84,6908.59z M998.55,6890.33v-6.5c0-1.4-0.21-2.44-0.65-3.13c-0.44-0.69-1.09-1.04-1.96-1.04h-1.96v13.93h2.06
			c0.74,0,1.35-0.31,1.81-0.91C998.33,6892.07,998.55,6891.29,998.55,6890.33z"/>
		<path class="st0" d="M1020.43,6879.65h-2.21v31.25h2.16v0.78h-8.66v-0.78h2.21v-31.25h-2.21v-0.78h8.71V6879.65z M1020.86,6868.06
			l-5.35,8.72h-0.81l1.24-8.72H1020.86z"/>
		<path class="st0" d="M1045.45,6911.69h-8.51v-0.78h2.11l-1.81-8.41h-5.92c-0.86,4.23-1.29,6.52-1.29,6.88
			c0,1.02,0.55,1.53,1.64,1.53h1.19v0.78h-6.7v-0.78h0.68c1.26,0,2.06-0.87,2.43-2.62l6.02-29.87h0.98l7.13,32.49h2.06V6911.69z
			 M1037.1,6901.74l-2.9-13.57l-2.71,13.57H1037.1z"/>
	</g>
</g>
<g>
	<g>
		<path d="M52.78,123.62c-0.79,0-1.33-0.36-1.62-1.09c-0.29-0.72-0.44-1.59-0.44-2.61c0-0.51,0.02-1.06,0.08-1.66
			c0.05-0.6,0.11-1.19,0.19-1.77c-0.56,1.12-1.16,2.2-1.81,3.24c-0.65,1.04-1.33,1.89-2.04,2.55c-0.71,0.66-1.46,0.99-2.25,0.99
			c-0.84,0-1.52-0.38-2.06-1.14c-0.53-0.76-0.8-1.66-0.8-2.71c0-0.74,0.12-1.59,0.36-2.55c0.24-0.97,0.54-1.92,0.9-2.86
			c0.36-0.94,0.72-1.72,1.11-2.33c0.38-0.61,0.71-0.91,0.99-0.91c0.13,0,0.39,0.07,0.8,0.21c0.41,0.14,0.61,0.32,0.61,0.55
			c-0.28,0.43-0.62,1.09-1.03,1.98c-0.41,0.89-0.76,1.85-1.07,2.88c-0.3,1.03-0.46,1.96-0.46,2.8c0,0.2,0.02,0.51,0.08,0.93
			c0.05,0.42,0.17,0.79,0.36,1.12c0.19,0.33,0.49,0.5,0.9,0.5c0.58,0,1.21-0.37,1.87-1.11c0.66-0.74,1.32-1.66,1.98-2.78
			c0.66-1.12,1.28-2.25,1.87-3.39c0.2-1.04,0.37-1.8,0.51-2.29c0.14-0.48,0.29-0.79,0.44-0.93c0.15-0.14,0.34-0.21,0.57-0.21
			c0.33,0,0.6,0.07,0.8,0.21c0.2,0.14,0.3,0.35,0.3,0.63c0,0.05-0.01,0.11-0.02,0.19c-0.01,0.08-0.03,0.15-0.06,0.23
			c-0.18,0.61-0.35,1.38-0.51,2.31c-0.17,0.93-0.3,1.89-0.4,2.88c-0.1,0.99-0.15,1.92-0.15,2.78c0,0.58,0.06,1.04,0.19,1.37
			c0.13,0.33,0.34,0.5,0.65,0.5c0.38,0,0.83-0.23,1.33-0.71c0.51-0.47,1.04-1.09,1.58-1.87c0.55-0.77,1.08-1.62,1.6-2.53
			c0.52-0.91,0.98-1.82,1.39-2.71c0-1.32,0.1-2.33,0.29-3.03c0.19-0.7,0.43-1.18,0.72-1.43c0.29-0.25,0.59-0.38,0.9-0.38
			c0.48,0,0.83,0.17,1.05,0.51c0.22,0.34,0.32,0.65,0.32,0.93c0,0.18-0.04,0.36-0.11,0.55c-0.08,0.19-0.18,0.4-0.3,0.63
			c-0.2,0.38-0.41,0.87-0.61,1.47c-0.2,0.6-0.3,1.42-0.3,2.46c0,0.41,0.04,0.84,0.11,1.3c0.08,0.46,0.24,0.84,0.5,1.14
			c0.25,0.3,0.65,0.46,1.18,0.46c0.53,0,1.05-0.21,1.54-0.63c0.5-0.42,0.98-1.15,1.47-2.19l0.5,0.38c-0.56,1.27-1.18,2.12-1.85,2.55
			c-0.67,0.43-1.32,0.65-1.93,0.65c-0.79,0-1.45-0.27-2-0.8c-0.55-0.53-0.95-1.33-1.2-2.4c-0.64,1.17-1.35,2.3-2.13,3.39
			c-0.79,1.09-1.6,1.99-2.44,2.69C54.38,123.27,53.57,123.62,52.78,123.62z"/>
		<path d="M82.32,124c-1.55,0-2.7-0.47-3.45-1.41c-0.75-0.94-1.12-2.07-1.12-3.39c-1.09,1.45-2.35,2.58-3.77,3.39
			c-1.42,0.81-2.86,1.22-4.31,1.22c-1.55,0-2.71-0.43-3.49-1.28c-0.77-0.85-1.16-1.9-1.16-3.14c0-1.14,0.29-2.35,0.86-3.62
			c0.57-1.27,1.33-2.46,2.29-3.58c0.95-1.12,2-2.03,3.14-2.73c1.14-0.7,2.27-1.05,3.39-1.05c0.58,0,1.12,0.15,1.62,0.46
			c0.5,0.3,0.74,0.93,0.74,1.87c0,0.97-0.29,1.87-0.86,2.73c-0.57,0.85-1.32,1.61-2.25,2.27c-0.93,0.66-1.94,1.2-3.05,1.62
			c-1.11,0.42-2.2,0.68-3.3,0.78c-0.05,0.25-0.09,0.5-0.11,0.72c-0.03,0.23-0.04,0.44-0.04,0.65c0,0.51,0.09,1.01,0.27,1.51
			c0.18,0.5,0.48,0.9,0.91,1.22c0.43,0.32,1.04,0.48,1.83,0.48c1.35,0,2.68-0.48,4-1.43c1.32-0.95,2.48-2.13,3.47-3.53
			c0.23-1.04,0.63-2.08,1.22-3.13c0.58-1.04,1.29-1.99,2.12-2.84c0.83-0.85,1.72-1.54,2.69-2.06c0.97-0.52,1.94-0.78,2.94-0.78
			c0.58,0,1.12,0.15,1.62,0.46c0.5,0.3,0.74,0.93,0.74,1.87c0,1.3-0.44,2.43-1.32,3.41c-0.88,0.98-2,1.76-3.37,2.34
			c-1.37,0.58-2.78,0.95-4.23,1.11c-0.05,0.25-0.09,0.5-0.11,0.72c-0.03,0.23-0.04,0.44-0.04,0.65c0,0.51,0.08,1.03,0.25,1.56
			c0.16,0.53,0.46,0.97,0.88,1.31c0.42,0.34,1.02,0.51,1.81,0.51c1.09,0,2.19-0.32,3.28-0.97c1.09-0.65,2.11-1.5,3.05-2.55
			c0.94-1.05,1.73-2.19,2.36-3.41l0.46,0.34c-0.69,1.52-1.57,2.87-2.65,4.02c-1.08,1.16-2.25,2.06-3.51,2.71
			C84.86,123.68,83.59,124,82.32,124z M67.8,117.41c0.69-0.23,1.46-0.57,2.33-1.01c0.86-0.44,1.7-0.97,2.5-1.58s1.46-1.28,1.98-2.02
			c0.52-0.74,0.78-1.51,0.78-2.32c0-0.28-0.05-0.5-0.15-0.65c-0.1-0.15-0.32-0.23-0.65-0.23c-0.61,0-1.26,0.24-1.94,0.71
			c-0.69,0.47-1.35,1.09-1.98,1.85c-0.64,0.76-1.21,1.6-1.72,2.52C68.43,115.58,68.05,116.49,67.8,117.41z M80.53,117.41
			c0.69-0.23,1.44-0.53,2.25-0.91c0.81-0.38,1.59-0.83,2.33-1.35c0.74-0.52,1.35-1.12,1.83-1.79c0.48-0.67,0.72-1.42,0.72-2.23
			c0-0.28-0.06-0.51-0.19-0.71c-0.13-0.19-0.36-0.29-0.69-0.29c-0.81,0-1.63,0.36-2.46,1.07c-0.83,0.71-1.58,1.62-2.25,2.73
			C81.4,115.03,80.89,116.19,80.53,117.41z"/>
		<path d="M94.25,123.89c-1.09,0-1.93-0.32-2.52-0.95c-0.58-0.64-0.88-1.58-0.88-2.82c0-1.12,0.21-2.5,0.63-4.14
			c0.42-1.64,0.95-3.32,1.58-5.05c-0.25-0.05-0.5-0.1-0.72-0.13c-0.23-0.04-0.44-0.1-0.65-0.17v-0.69c0.2,0.03,0.44,0.05,0.72,0.08
			c0.28,0.03,0.6,0.05,0.95,0.08c0.53-1.37,1.11-2.7,1.72-3.98c0.61-1.28,1.21-2.43,1.81-3.43c0.6-1,1.17-1.8,1.72-2.4
			c0.55-0.6,1.01-0.9,1.39-0.9c0.2,0,0.39,0.07,0.55,0.21c0.17,0.14,0.25,0.35,0.25,0.63c0,0.43-0.27,1.14-0.8,2.12
			c-0.53,0.98-1.19,2.14-1.98,3.49c-0.79,1.35-1.55,2.81-2.29,4.38c0.23,0,0.46,0,0.71,0c0.24,0,0.48,0,0.71,0
			c0.84,0,1.72-0.01,2.65-0.04c0.93-0.02,1.86-0.09,2.8-0.19v0.69c-1.4,0.15-2.65,0.27-3.75,0.34c-1.11,0.08-2.09,0.11-2.95,0.11
			c-0.1,0-0.2,0-0.29,0c-0.09,0-0.18,0-0.29,0c-0.58,1.35-1.08,2.73-1.49,4.15c-0.41,1.42-0.61,2.81-0.61,4.15
			c0,1.09,0.16,1.87,0.5,2.34c0.33,0.47,0.88,0.71,1.64,0.71c1.32,0,2.62-0.58,3.89-1.75c1.27-1.17,2.39-2.76,3.35-4.76l0.5,0.38
			c-0.61,1.42-1.38,2.71-2.31,3.85c-0.93,1.14-1.95,2.05-3.07,2.71C96.6,123.56,95.45,123.89,94.25,123.89z"/>
		<path d="M103.51,132.81c-0.64,0-1.19-0.17-1.68-0.51c-0.48-0.34-0.72-0.85-0.72-1.51c0-0.81,0.2-1.54,0.61-2.17
			c0.41-0.64,0.95-1.22,1.64-1.75c0.69-0.53,1.47-1.04,2.36-1.52c0.89-0.48,1.82-0.97,2.78-1.45c0.36-0.94,0.72-1.99,1.09-3.14
			c0.37-1.16,0.72-2.43,1.05-3.83c-0.81,1.32-1.68,2.46-2.61,3.41c-0.93,0.95-1.91,1.43-2.95,1.43c-0.48,0-0.96-0.11-1.43-0.32
			c-0.47-0.22-0.86-0.55-1.16-1.01c-0.3-0.46-0.46-1.04-0.46-1.75c0-0.71,0.12-1.54,0.36-2.48c0.24-0.94,0.54-1.85,0.9-2.74
			c0.36-0.89,0.72-1.63,1.11-2.21c0.38-0.58,0.71-0.88,0.99-0.88c0.1,0,0.29,0.04,0.55,0.11c0.27,0.08,0.52,0.18,0.76,0.32
			c0.24,0.14,0.36,0.29,0.36,0.44c-0.23,0.33-0.48,0.8-0.76,1.41c-0.28,0.61-0.55,1.29-0.82,2.04c-0.27,0.75-0.49,1.48-0.67,2.19
			c-0.18,0.71-0.27,1.32-0.27,1.83c0,0.46,0.1,0.83,0.3,1.11c0.2,0.28,0.56,0.42,1.07,0.42c0.48,0,1.02-0.23,1.62-0.71
			c0.6-0.47,1.19-1.07,1.79-1.81c0.6-0.74,1.15-1.52,1.66-2.36c0.08-0.28,0.15-0.57,0.21-0.86c0.06-0.29,0.12-0.59,0.17-0.9
			c0.08-0.36,0.26-0.77,0.55-1.24c0.29-0.47,0.76-0.71,1.39-0.71c0.13,0,0.25,0.01,0.38,0.02c0.13,0.01,0.27,0.04,0.42,0.1
			c0,0.41-0.12,1.16-0.36,2.27c-0.24,1.11-0.58,2.4-1.03,3.87c-0.44,1.47-0.97,2.99-1.58,4.54c1.19-0.46,2.36-1.21,3.51-2.27
			c1.14-1.05,2.07-2.46,2.78-4.21l0.5,0.38c-0.38,1.22-0.96,2.28-1.73,3.18c-0.78,0.9-1.65,1.68-2.61,2.33
			c-0.97,0.65-1.92,1.19-2.86,1.62c-0.66,1.63-1.38,3.15-2.15,4.57c-0.78,1.42-1.59,2.57-2.44,3.45
			C105.27,132.37,104.4,132.81,103.51,132.81z M103.32,131.59c0.38,0,1.02-0.5,1.92-1.51c0.9-1,1.86-2.76,2.88-5.28
			c-1.04,0.56-2.01,1.11-2.9,1.66c-0.89,0.55-1.6,1.14-2.13,1.77c-0.53,0.63-0.8,1.37-0.8,2.21c0,0.2,0.08,0.44,0.23,0.72
			C102.68,131.45,102.94,131.59,103.32,131.59z"/>
		<path d="M30.84,125.06c-1.21,0-2.35-0.22-3.43-0.66c-1.08-0.44-1.94-1.1-2.61-2c-0.66-0.9-0.99-2.02-0.99-3.36
			c0-1.17,0.23-2.07,0.69-2.72c0.46-0.65,1.03-1.11,1.7-1.38s1.31-0.4,1.92-0.4c-0.61,0.65-1.06,1.37-1.38,2.15
			c-0.31,0.78-0.47,1.57-0.47,2.35c0,0.83,0.18,1.6,0.55,2.32c0.37,0.72,0.94,1.29,1.7,1.73c0.76,0.44,1.73,0.66,2.89,0.66
			c1.01,0,1.99-0.18,2.96-0.55c0.96-0.37,1.75-0.92,2.37-1.65c0.62-0.73,0.92-1.63,0.92-2.71c0-0.96-0.25-1.79-0.74-2.49
			c-0.49-0.69-1.13-1.31-1.9-1.85c-0.77-0.54-1.6-1.05-2.47-1.55c-0.87-0.49-1.7-1.01-2.47-1.56c-0.77-0.55-1.41-1.18-1.9-1.9
			c-0.49-0.72-0.74-1.58-0.74-2.59c0-0.94,0.22-1.93,0.67-2.96c0.45-1.03,1.09-2.01,1.93-2.92c0.84-0.92,1.85-1.66,3.03-2.24
			c1.18-0.57,2.49-0.86,3.95-0.86c1.32,0,2.24,0.32,2.76,0.96c0.52,0.64,0.77,1.44,0.77,2.4c0,0.81-0.14,1.68-0.42,2.61
			c-0.28,0.93-0.62,1.82-1.03,2.66c-0.4,0.84-0.78,1.55-1.14,2.13c-0.4-0.09-0.69-0.26-0.86-0.52c-0.17-0.26-0.25-0.57-0.25-0.92
			c0-0.47,0.1-1.01,0.3-1.61c0.2-0.61,0.43-1.23,0.69-1.88c0.26-0.65,0.49-1.28,0.69-1.9c0.2-0.62,0.3-1.17,0.3-1.66
			c0-0.45-0.13-0.8-0.4-1.06c-0.27-0.26-0.76-0.39-1.48-0.39c-1.05,0-2.03,0.25-2.92,0.74c-0.9,0.49-1.68,1.13-2.35,1.9
			c-0.67,0.77-1.19,1.59-1.56,2.44c-0.37,0.85-0.55,1.63-0.55,2.32c0,0.83,0.24,1.54,0.72,2.13c0.48,0.59,1.1,1.13,1.87,1.61
			c0.76,0.48,1.57,0.96,2.44,1.45c0.86,0.48,1.68,1.01,2.44,1.6c0.76,0.58,1.38,1.27,1.87,2.07c0.48,0.8,0.72,1.77,0.72,2.91
			c0,1.17-0.26,2.19-0.77,3.08c-0.52,0.89-1.21,1.63-2.07,2.24c-0.86,0.61-1.81,1.06-2.84,1.38
			C32.9,124.9,31.87,125.06,30.84,125.06z"/>
	</g>
	<path d="M113.97,42.12c-0.09-0.05-0.11,0.03-0.14,0.08c-0.19,1.28-0.49,2.53-1,3.72c-0.42,0.98-0.99,1.87-1.81,2.57
		c-1.22,1.05-2.69,1.49-4.24,1.68c-0.82,0.1-1.65,0.14-2.47,0.19c-1.75,0.11-3.5,0.07-5.24-0.14c-2.14-0.26-4.25-0.67-6.35-1.17
		c-3.02-0.72-5.98-1.64-8.91-2.67c-3.78-1.33-7.5-2.84-11.22-4.34c-0.06-0.02-0.14-0.02-0.16-0.14c0.07-0.04,0.14-0.09,0.22-0.14
		c0.96-0.53,1.93-1.05,2.89-1.57c0.93-0.5,1.89-0.94,2.77-1.54c0.49-0.33,1.02-0.62,1.54-0.91c0.58-0.32,1.18-0.38,1.8-0.14
		c0.25,0.1,0.51,0.19,0.75,0.31c1.17,0.57,2.34,1.14,3.51,1.72c2.41,1.19,4.83,2.34,7.34,3.29c2.1,0.8,4.25,1.35,6.52,1.39
		c2.29,0.04,4.43-0.48,6.43-1.59c1.33-0.75,2.49-1.69,3.28-3.03c1.09-1.86,1.25-3.81,0.42-5.81c-0.58-1.41-1.57-2.49-2.8-3.36
		c-2.15-1.51-4.57-2.12-7.16-2.18c-1.18-0.03-2.35,0.08-3.53,0.22c-1.53,0.18-3.02,0.49-4.48,0.94c-2.64,0.81-5.12,2.01-7.55,3.31
		c-0.62,0.33-1.24,0.67-1.87,0.99c-0.36,0.18-0.73,0.32-1.14,0.35c-0.01-0.05-0.03-0.08-0.03-0.1c0.29-1.68,0.19-3.35-0.26-4.99
		c-0.1-0.36-0.09-0.36,0.26-0.4c1.14-0.13,2.24-0.39,3.3-0.83c1.36-0.58,2.56-1.39,3.4-2.62c0.85-1.23,1.06-2.57,0.35-3.96
		c-0.48-0.95-1.31-1.49-2.26-1.88c-1.96-0.8-4-0.91-6.07-0.61c-1.46,0.21-2.85,0.62-4.21,1.19c-0.31,0.13-0.31,0.13-0.51-0.12
		c-0.88-1.08-1.71-2.21-2.45-3.39c-0.12-0.19-0.26-0.38-0.32-0.6c0.11-0.06,0.2-0.02,0.29-0.01c0.5,0.07,0.99,0.14,1.49,0.21
		c0.9,0.13,1.8,0.23,2.71,0.29c0.8,0.05,1.6,0.11,2.39-0.04c1.27-0.25,2.32-0.88,2.97-2.01c0.57-1,0.88-2.07,0.87-3.25
		c-0.01-1.59-0.42-3.02-1.3-4.33c-0.81-1.19-1.9-1.94-3.32-2.23c-0.92-0.19-1.83-0.16-2.75-0.05c-1.58,0.2-3.05,0.72-4.43,1.52
		c-1.77,1.03-3,2.47-3.57,4.45c-0.28,0.97-0.39,1.97-0.36,2.98c0,0.15,0.04,0.3-0.05,0.47c-0.38-0.07-0.76-0.13-1.14-0.2
		c-1.64-0.29-3.29-0.51-4.97-0.46c-1.4,0.04-2.74,0.3-4.03,0.85c-1.06,0.45-2.02,1.04-2.75,1.97c-0.88,1.12-1.21,2.37-0.99,3.78
		c0.14,0.9,0.51,1.71,1.01,2.46c0.68,1,1.44,1.94,2.19,2.88c0.1,0.13,0.22,0.25,0.3,0.43c-0.26-0.05-0.46-0.14-0.67-0.16
		c-1.52-0.19-3.05-0.29-4.58-0.21c-0.93,0.05-1.86,0.18-2.76,0.47c-1.35,0.43-2.57,1.08-3.53,2.15c-0.74,0.83-1.14,1.8-1.12,2.93
		c0.02,1.12,0.46,2.08,1.19,2.91c1.25,1.42,2.87,2.05,4.71,2.17c0.97,0.06,1.95,0.04,2.92-0.06c2.03-0.21,3.96-0.76,5.81-1.6
		c1.85-0.84,3.54-1.93,5.14-3.18c0.38-0.3,0.76-0.61,1.21-0.81c0.19-0.09,0.39-0.18,0.61-0.18c-0.01,0.09-0.06,0.14-0.11,0.18
		c-0.22,0.16-0.32,0.37-0.36,0.65c-0.05,0.4-0.12,0.8-0.16,1.21c-0.13,1.38-0.15,2.76,0.27,4.11c0.64,2.01,1.92,3.43,3.95,4.12
		c0.31,0.11,0.63,0.18,0.95,0.27c-0.04,0.09-0.11,0.1-0.17,0.11c-0.69,0.18-1.37,0.1-2.04-0.11c-2.25-0.71-4.5-1.41-6.77-2.02
		c-3.26-0.87-6.55-1.6-9.91-1.95c-1.87-0.2-3.75-0.31-5.64-0.25c-1.25,0.04-2.49,0.12-3.73,0.25c-1.47,0.17-2.92,0.4-4.36,0.74
		c-2.42,0.59-4.69,1.5-6.75,2.92c-1.15,0.79-2.17,1.72-2.89,2.93c-1.26,2.12-1.31,4.24,0.05,6.32c0.97,1.48,2.35,2.47,3.95,3.15
		c2.45,1.04,5.03,1.61,7.69,1.75c1.38,0.07,2.77,0.02,4.14-0.16c2.24-0.29,4.4-0.88,6.51-1.7c3.65-1.43,7.18-3.13,10.7-4.84
		c2.07-1.01,4.15-2.01,6.22-3.01c0.49-0.23,0.97-0.49,1.49-0.64c0.67-0.2,1.32-0.23,1.99,0.02c1.67,0.63,3.36,1.22,5.04,1.84
		c4.65,1.72,9.29,3.46,13.94,5.19c0.11,0.04,0.24,0.05,0.33,0.21c-0.13,0-0.23,0-0.33,0c-0.79-0.02-1.57,0.07-2.34,0.26
		c-1.36,0.32-2.52,0.96-3.44,2.03c-0.73,0.86-1.21,1.86-1.56,2.93c-0.93,2.9-1.5,5.88-1.95,8.88c-0.26,1.7-0.43,3.41-0.66,5.12
		c-0.18,1.4-0.47,2.78-0.98,4.1c-0.31,0.82-0.61,1.67-1.25,2.31c-0.63,0.63-1.41,1.08-2.14,1.65c-0.31-0.69-0.68-1.3-0.95-1.97
		c-0.13-0.33-0.24-0.67-0.2-1.03c0.09-0.79,0.2-1.59,0.32-2.38c0.23-1.5,0.46-3,0.7-4.5c0.3-1.87,0.62-3.74,0.93-5.61
		c0.32-1.88,0.67-3.76,0.81-5.67c0.11-1.61,0.04-3.2-0.36-4.76c-0.3-1.16-0.71-2.28-1.47-3.23c-0.99-1.24-2.27-1.98-3.86-2.08
		c-1.57-0.1-2.89,0.5-3.97,1.62c-0.82,0.85-1.41,1.85-1.87,2.93c-0.53,1.26-0.83,2.57-0.98,3.93c-0.16,1.42-0.12,2.84-0.02,4.26
		c0.07,0.97,0.19,1.94,0.28,2.91c0.09,0.97,0.18,1.94,0.27,2.91c0.12,1.25,0.22,2.51,0.31,3.77c0.07,0.93,0.12,1.87,0.18,2.8
		c0.09,1.5,0.16,3,0.22,4.51c0.01,0.31-0.07,0.59-0.21,0.86c-0.33,0.64-0.81,1.18-1.21,1.8c-0.57-0.38-1.12-0.74-1.65-1.11
		c-0.34-0.24-0.57-0.56-0.72-0.96c-0.47-1.29-0.85-2.6-1.19-3.93c-0.58-2.26-0.98-4.55-1.46-6.83c-0.43-2.02-0.92-4.01-1.7-5.93
		c-0.61-1.5-1.34-2.94-2.36-4.21c-1.14-1.42-2.59-2.13-4.45-1.89c-1.35,0.18-2.37,0.83-2.96,2.07c-0.65,1.39-0.74,2.87-0.52,4.38
		c0.13,0.88,0.46,1.7,0.74,2.53c1.24,3.63,2.66,7.2,3.93,10.81c0.67,1.89,1.32,3.79,1.82,5.73c0.14,0.55,0.07,1.08-0.18,1.58
		c-0.11,0.23-0.28,0.4-0.55,0.43c-0.57,0.06-1.13-0.04-1.58-0.4c-1.08-0.88-1.99-1.9-2.57-3.2c-1.58-3.54-3.07-7.12-4.58-10.69
		c-0.71-1.67-1.35-3.37-2.04-5.05c-0.75-1.8-1.68-3.49-3.02-4.94c-1.1-1.18-2.36-2.07-4.01-2.29c-1.65-0.22-3.04,0.29-4.09,1.57
		c-1.15,1.4-1.5,3.01-1.05,4.77c0.25,0.97,0.51,1.94,0.81,2.9c0.41,1.32,0.9,2.62,1.58,3.83c2.57,4.57,5.2,9.12,7.86,13.64
		c2.47,4.21,4.96,8.41,7.44,12.61c0.63,1.06,1.5,1.85,2.7,2.23c0.28,0.09,0.56,0.2,0.84,0.3c2.3,0.82,4.6,1.62,6.96,2.24
		c2.49,0.65,5.02,1.12,7.58,1.39c1.55,0.17,3.11,0.25,4.66,0.29c0.85,0.02,1.71-0.01,2.56-0.04c1.26-0.04,2.52-0.14,3.77-0.28
		c1.87-0.22,3.72-0.53,5.56-0.96c3.22-0.74,6.34-1.77,9.37-3.07c0.61-0.26,1.13-0.63,1.59-1.11c0.53-0.56,0.9-1.22,1.23-1.91
		c1.05-2.22,2.1-4.44,3.17-6.65c1.64-3.39,3.38-6.74,5.35-9.96c1.63-2.66,3.32-5.28,4.89-7.97c1.21-2.07,2.18-4.24,2.57-6.64
		c0.2-1.24,0.3-2.48,0.03-3.72c-0.37-1.68-1.24-2.97-2.87-3.64c-1.02-0.42-2.09-0.46-3.16-0.25c-1.84,0.36-3.45,1.19-4.81,2.49
		c-1.32,1.26-2.22,2.79-2.91,4.46c-1.41,3.41-2.81,6.82-4.22,10.22c-0.37,0.89-0.75,1.77-1.16,2.65c-0.54,1.15-1.41,2.04-2.32,2.9
		c-0.59,0.56-1.27,0.68-2.03,0.59c-0.3-0.04-0.59-0.14-0.77-0.4c-0.41-0.57-0.61-1.21-0.5-1.91c0.15-0.91,0.44-1.79,0.76-2.65
		c0.61-1.63,1.39-3.18,2.14-4.74c1.14-2.38,2.32-4.75,3.4-7.16c0.57-1.28,1.1-2.56,1.33-3.96c0.24-1.48,0.12-2.89-0.62-4.22
		c-0.32-0.58-0.65-1.16-0.97-1.74c-0.04-0.08-0.12-0.15-0.04-0.29c0.6,0.12,1.2,0.23,1.81,0.36c1.82,0.37,3.64,0.72,5.5,0.83
		c2.19,0.13,4.36,0.02,6.49-0.55c2.13-0.57,4.11-1.47,5.84-2.85c1.09-0.87,1.84-1.99,2.19-3.34
		C114.47,44.7,114.37,43.4,113.97,42.12z M83.01,35.49c1.67-0.51,3.34-1.03,5.01-1.54c2.19-0.67,4.4-1.25,6.67-1.58
		c1.7-0.25,3.42-0.36,5.14-0.22c0.96,0.08,1.92,0.16,2.84,0.44c1.42,0.43,2.69,1.16,3.8,2.14c0.88,0.77,1.22,1.75,0.91,2.9
		c-0.24,0.9-0.87,1.48-1.71,1.84c-0.95,0.4-1.93,0.71-2.94,0.93c-1.6,0.35-3.22,0.38-4.85,0.29c-4.03-0.23-7.83-1.34-11.55-2.82
		c-1.38-0.55-2.75-1.15-4.1-1.78c-0.12-0.06-0.24-0.12-0.45-0.22C82.26,35.72,82.64,35.61,83.01,35.49z M66.99,42.69
		c-2.86,1.37-5.72,2.74-8.59,4.09c-2.4,1.13-4.85,2.16-7.37,3c-2.18,0.73-4.39,1.28-6.67,1.58c-1.55,0.21-3.1,0.32-4.66,0.25
		c-1.48-0.06-2.88-0.45-4.25-1c-0.78-0.32-1.54-0.68-2.26-1.1c-1.08-0.62-1.87-1.48-2.15-2.73c-0.32-1.44,0.1-2.67,1.15-3.7
		c0.47-0.46,1.05-0.77,1.62-1.08c2.1-1.15,4.32-2.02,6.68-2.46c1.2-0.22,2.41-0.37,3.62-0.46c1.35-0.1,2.7-0.18,4.06-0.14
		c1.9,0.06,3.78,0.2,5.67,0.45c3.2,0.43,6.34,1.12,9.46,1.95c1.2,0.32,2.4,0.67,3.6,1.01c0.12,0.03,0.23,0.07,0.37,0.12
		C67.2,42.63,67.08,42.65,66.99,42.69z M79.41,20.31c1.11-0.23,2.23-0.33,3.35-0.32c0.61,0.01,1.22,0.03,1.82,0.14
		c1.88,0.34,2.99,2.25,2.31,4.01c-0.29,0.75-0.85,1.25-1.54,1.61c-0.6,0.31-1.25,0.53-1.88,0.77c-0.89,0.34-1.79,0.63-2.72,0.82
		c-0.21,0.04-0.29-0.02-0.37-0.19c-0.94-2.08-2.23-3.93-3.66-5.7c-0.04-0.05-0.08-0.11-0.12-0.16c-0.01-0.02-0.02-0.05-0.04-0.12
		C77.49,20.77,78.44,20.51,79.41,20.31z M76.91,29.12c0.44,0.99,0.79,1.99,0.77,3.09c0,0.11,0,0.22-0.01,0.32
		c-0.02,0.13-0.04,0.27-0.07,0.4c-0.15-0.03-8.17-3.94-8.34-4.07c0.17,0,0.3,0,0.43,0c2.26,0.02,4.52,0.04,6.78,0.06
		C76.65,28.91,76.81,28.9,76.91,29.12z M71.74,11.83c0.32-1.6,0.83-3.12,1.88-4.41c0.57-0.7,1.23-1.3,2.06-1.69
		c0.81-0.39,1.68-0.46,2.54-0.3c1.03,0.19,1.72,0.86,2.21,1.77c0.37,0.68,0.52,1.42,0.59,2.18c0.02,0.26,0,0.51,0,0.77
		c0.07,0.75-0.08,1.48-0.28,2.2c-0.36,1.32-1.29,2.08-2.55,2.44c-1.39,0.4-2.82,0.49-4.26,0.23c-0.53-0.1-1.07-0.2-1.6-0.27
		c-0.25-0.03-0.35-0.15-0.42-0.36C71.65,13.55,71.57,12.7,71.74,11.83z M63.35,29.66c-1.78,1.21-3.56,2.43-5.51,3.37
		c-1.51,0.73-3.09,1.25-4.75,1.48c-0.48,0.07-0.97,0.13-1.22,0.12c-1.2,0-2.12-0.17-2.99-0.58c-1.87-0.87-2.24-3.45-1.18-4.84
		c0.35-0.45,0.78-0.8,1.31-0.99c1.07-0.39,2.15-0.75,3.27-0.95c0.93-0.17,1.86-0.14,2.79-0.03c2.65,0.3,5.26,0.85,7.88,1.34
		c0.19,0.03,0.37,0.07,0.56,0.1c0.13,0.02,0.17,0.09,0.19,0.22C63.73,29.21,63.66,29.45,63.35,29.66z M66.08,26.05
		c-0.58,0.26-1.17,0.32-1.78,0.13c-0.71-0.22-1.35-0.56-1.99-0.91c-1.28-0.7-2.52-1.45-3.58-2.45c-0.6-0.56-1.14-1.17-1.44-1.94
		c-0.58-1.45-0.29-2.8,0.57-4.05c0.76-1.09,1.84-1.63,3.16-1.76c0.83-0.08,1.65-0.07,2.48-0.09c1.34-0.02,2.68,0.11,4.02,0.19
		c0.19,0.01,0.33,0.05,0.39,0.27c0.55,1.83,1.51,3.44,2.62,4.98c0.36,0.51,0.74,1.01,1.1,1.51c0.17,0.23,0.17,0.24-0.04,0.37
		c-1.49,0.97-2.89,2.06-4.34,3.08C66.87,25.64,66.49,25.87,66.08,26.05z M68.64,26.1c1.15-0.95,2.33-1.85,3.58-2.67
		c0.08-0.05,0.16-0.1,0.24-0.15c0.11-0.08,0.19-0.06,0.28,0.04c1.13,1.3,2.26,2.59,3.18,4.06c0.03,0.04,0.04,0.1,0.08,0.19
		c-0.23,0.07-0.42,0.05-0.61,0.04c-1.68-0.07-3.36-0.03-5.03-0.08c-0.64-0.02-1.27-0.04-1.91-0.04c-0.19,0-0.26-0.07-0.28-0.26
		C68.1,26.55,68.1,26.55,68.64,26.1z M72.01,39.7c-2.01-0.14-3.15-1.69-3.58-3.24c-0.42-1.52-0.34-3.03,0.25-4.5
		c0.13-0.32,0.19-0.64,0.25-1c0.6,0.19,1.15,0.44,1.71,0.68c2.13,0.91,4.2,1.95,6.18,3.15c0.33,0.2,0.32,0.2,0.2,0.57
		c-0.22,0.67-0.49,1.32-0.88,1.92c-0.13,0.21-0.3,0.38-0.52,0.5c-1.07,0.61-2.14,1.22-3.21,1.84C72.29,39.7,72.17,39.71,72.01,39.7z
		 M92.38,57.51c-0.13,2.02-0.86,3.85-1.75,5.63c-1.58,3.15-3.08,6.34-4.45,9.59c-0.42,1-0.83,2-1.22,3.01
		c-0.36,0.93-0.4,1.87,0.03,2.8c0.91,1.97,3.92,3.05,5.87,0.98c1.01-1.08,1.86-2.29,2.66-3.54c1-1.59,1.77-3.3,2.49-5.02
		c1.09-2.63,2.16-5.27,3.25-7.89c0.47-1.14,0.99-2.26,1.75-3.25c1.17-1.52,2.69-2.46,4.58-2.78c0.53-0.09,1.08-0.09,1.61,0.06
		c1.06,0.28,1.78,1.14,1.82,2.24c0.08,2.17-0.26,4.26-1.18,6.25c-1.29,2.8-2.81,5.47-4.43,8.09c-2.29,3.69-4.53,7.4-6.56,11.24
		c-1.33,2.52-2.56,5.09-3.62,7.73c-0.26,0.66-0.55,1.3-1.02,1.84c-0.62,0.71-1.39,1.2-2.27,1.52c-1.86,0.67-3.77,1.19-5.7,1.62
		c-1.85,0.41-3.72,0.71-5.61,0.92c-1.86,0.21-3.72,0.34-5.59,0.42C72.14,99,71.26,99,70.55,99.02c-1.97,0.03-3.77-0.1-5.56-0.31
		c-3.64-0.43-7.2-1.27-10.67-2.46c-0.85-0.29-1.68-0.61-2.51-0.95c-0.92-0.38-1.63-0.97-2.14-1.84c-1.99-3.36-4.01-6.7-6.01-10.05
		c-2.92-4.89-5.82-9.79-8.69-14.71c-0.56-0.96-1.14-1.91-1.58-2.94c-0.44-1.03-0.75-2.09-0.7-3.23c0.04-1.11,0.36-2.13,0.97-3.06
		c0.05-0.08,0.11-0.15,0.17-0.23c0.47-0.63,1.11-0.79,1.84-0.64c1.93,0.41,3.32,1.53,4.18,3.3c0.35,0.72,0.67,1.45,0.99,2.19
		c1.6,3.62,3.13,7.27,4.66,10.92c0.5,1.19,0.94,2.4,1.41,3.59c0.54,1.37,1.27,2.64,2.28,3.72c0.79,0.85,1.7,1.52,2.87,1.73
		c1.18,0.22,2.15-0.14,2.85-1.12c0.71-0.99,0.9-2.11,0.75-3.29c-0.13-1.01-0.48-1.97-0.85-2.92c-1.26-3.23-2.55-6.46-3.81-9.69
		c-0.55-1.41-1.09-2.83-1.59-4.27c-0.33-0.95-0.35-1.91-0.26-2.89c0.05-0.51,0.13-1.02,0.35-1.5c0.19-0.4,0.44-0.75,0.79-1.02
		c0.63-0.49,1.34-0.55,2.09-0.38c0.5,0.11,0.93,0.37,1.33,0.68c1.35,1.05,2.23,2.42,2.82,4c0.5,1.33,0.8,2.7,1.04,4.09
		c0.42,2.39,0.81,4.78,1.23,7.17c0.22,1.24,0.41,2.49,0.82,3.69c0.49,1.42,1.14,2.76,2.07,3.94c0.85,1.08,2.02,1.41,3.35,1.1
		c1.3-0.3,2.1-1.11,2.45-2.4c0.1-0.37,0.12-0.75,0.16-1.13c0.22-2.09,0.32-4.19,0.26-6.3c-0.04-1.31-0.16-2.62-0.3-3.93
		c-0.1-0.89-0.18-1.78-0.27-2.67c-0.1-0.94-0.21-1.88-0.3-2.83c-0.15-1.68-0.3-3.35-0.18-5.04c0.1-1.34,0.41-2.65,0.76-3.94
		c0.16-0.58,0.32-1.15,0.63-1.67c0.63-1.05,1.49-1.78,2.72-2.02c0.53-0.11,1.06-0.06,1.55,0.15c1.33,0.57,2.2,1.54,2.57,2.95
		c0.09,0.33,0.1,0.67,0.11,1.01c0.06,1.67,0.14,3.33,0.09,5c-0.08,2.29-0.26,4.57-0.61,6.84c-0.37,2.37-0.84,4.72-1.29,7.07
		c-0.15,0.77-0.29,1.54-0.42,2.32c-0.08,0.48-0.04,0.98-0.01,1.46c0.03,0.54,0.08,1.08,0.22,1.61c0.32,1.19,1.1,1.85,2.43,1.99
		c1.11,0.12,2.05-0.3,2.86-1.02c0.99-0.88,1.7-1.96,2.27-3.15c0.75-1.58,1.15-3.26,1.41-4.99c0.26-1.76,0.53-3.51,0.78-5.26
		c0.28-1.94,0.6-3.88,0.92-5.82c0.2-1.19,0.43-2.37,1.04-3.44c0.69-1.22,1.65-2.14,2.92-2.73c0.8-0.37,1.63-0.51,2.49-0.22
		c1.02,0.34,1.6,1.09,1.89,2.08C92.4,56.21,92.42,56.85,92.38,57.51z"/>
	<g>
		<path d="M41.66,136.39c-0.1,0.64-0.41,0.96-0.93,0.96c-0.37,0-0.66-0.15-0.87-0.45c-0.21-0.3-0.31-0.75-0.31-1.33v-2.44
			c0-0.28-0.06-0.48-0.17-0.63c-0.12-0.14-0.29-0.21-0.52-0.21h-0.61v4.77h0.64v0.23h-2.51v-0.23h0.64v-9h-0.64v-0.23h2.73
			c0.57,0,1.02,0.19,1.32,0.57c0.31,0.38,0.46,0.91,0.46,1.6c0,0.68-0.11,1.18-0.34,1.5c-0.22,0.32-0.58,0.54-1.06,0.66v0.04h0.12
			c0.35,0,0.63,0.14,0.85,0.43c0.22,0.29,0.33,0.67,0.33,1.16v2.54c0,0.32,0.09,0.49,0.28,0.49c0.2,0,0.32-0.15,0.37-0.46
			L41.66,136.39z M39.57,131.13v-1.87c0-0.4-0.06-0.7-0.19-0.9c-0.13-0.2-0.31-0.3-0.57-0.3h-0.57v4.01h0.59
			c0.21,0,0.39-0.09,0.52-0.26C39.5,131.64,39.57,131.41,39.57,131.13z"/>
		<path d="M47.78,137.29h-4.42v-0.23H44v-9h-0.64v-0.23h4.38v2.08h-0.23c-0.08-0.63-0.22-1.1-0.45-1.41
			c-0.22-0.3-0.53-0.45-0.93-0.45h-0.91v4.07h0.62c0.28,0,0.51-0.09,0.69-0.28c0.18-0.18,0.27-0.41,0.27-0.69v-0.37h0.22v3.03h-0.21
			v-0.09c0-0.42-0.09-0.75-0.26-1c-0.17-0.25-0.4-0.37-0.68-0.37h-0.67v4.69h0.74c0.46,0,0.82-0.18,1.05-0.54
			c0.24-0.36,0.42-0.93,0.54-1.7h0.22V137.29z"/>
		<path d="M49.81,127.83h2.41c0.71,0,1.24,0.2,1.59,0.61s0.53,1.02,0.53,1.84c0,0.85-0.17,1.48-0.51,1.9
			c-0.34,0.42-0.93,0.63-1.78,0.63h-0.37v4.24h0.64v0.23h-2.51v-0.23h0.64v-9h-0.64V127.83z M53.02,130.99v-1.22
			c0-0.53-0.04-0.92-0.1-1.17c-0.06-0.25-0.19-0.4-0.36-0.46c-0.18-0.06-0.47-0.09-0.87-0.09v4.53h0.39c0.31,0,0.55-0.1,0.71-0.29
			C52.93,132.1,53.02,131.67,53.02,130.99z"/>
		<path d="M58.87,127.72c0.75,0,1.3,0.38,1.66,1.15c0.36,0.77,0.54,1.96,0.54,3.57c0,1.65-0.19,2.89-0.56,3.71
			c-0.37,0.83-0.93,1.24-1.67,1.24c-0.73,0-1.28-0.42-1.66-1.26c-0.38-0.84-0.57-2.07-0.57-3.68c0-1.5,0.17-2.67,0.51-3.49
			c0.34-0.82,0.91-1.23,1.7-1.23H58.87z M59.72,135.71v-6.38c0-0.42-0.09-0.76-0.26-1.01c-0.17-0.25-0.38-0.38-0.64-0.38
			c-0.25,0-0.46,0.14-0.62,0.41c-0.16,0.27-0.25,0.64-0.25,1.11v6.25c0,0.44,0.09,0.79,0.25,1.06c0.17,0.27,0.39,0.4,0.66,0.4
			c0.25,0,0.45-0.14,0.61-0.4C59.64,136.5,59.72,136.15,59.72,135.71z"/>
		<path d="M66.96,130.42c-0.11-0.81-0.31-1.43-0.6-1.85c-0.28-0.42-0.62-0.63-1.01-0.63c-0.26,0-0.47,0.11-0.65,0.34
			c-0.17,0.23-0.26,0.52-0.26,0.89c0,0.42,0.09,0.8,0.27,1.15c0.18,0.35,0.52,0.81,1.02,1.36c0.71,0.77,1.2,1.42,1.48,1.96
			c0.28,0.54,0.42,1.07,0.42,1.6c0,0.61-0.19,1.13-0.57,1.53c-0.38,0.41-0.91,0.61-1.59,0.61c-0.37,0-0.74-0.15-1.1-0.44
			c-0.14-0.12-0.24-0.18-0.3-0.18c-0.25,0-0.39,0.17-0.42,0.52h-0.22v-2.95h0.22c0.11,0.91,0.34,1.61,0.68,2.1
			c0.35,0.49,0.73,0.73,1.15,0.73c0.34,0,0.6-0.11,0.78-0.34c0.18-0.23,0.28-0.55,0.28-0.97c0-0.46-0.12-0.92-0.37-1.37
			c-0.25-0.46-0.66-1-1.25-1.62c-0.53-0.57-0.92-1.07-1.16-1.51c-0.24-0.44-0.36-0.88-0.36-1.31c0-0.74,0.18-1.31,0.54-1.72
			c0.36-0.4,0.82-0.61,1.37-0.61c0.31,0,0.64,0.11,1,0.33c0.17,0.11,0.28,0.16,0.35,0.16c0.18,0,0.27-0.11,0.27-0.33v-0.05h0.22
			v2.59H66.96z"/>
		<path d="M74.43,130.34h-0.23c-0.07-0.8-0.23-1.38-0.48-1.74c-0.25-0.36-0.62-0.54-1.11-0.54v9h0.64v0.23h-2.51v-0.23h0.64v-9
			c-0.5,0-0.87,0.18-1.12,0.54c-0.25,0.36-0.4,0.94-0.47,1.74h-0.22v-2.5h4.86V130.34z"/>
		<path d="M80.8,137.29h-4.42v-0.23h0.64v-9h-0.64v-0.23h4.38v2.08h-0.23c-0.08-0.63-0.22-1.1-0.45-1.41
			c-0.22-0.3-0.53-0.45-0.93-0.45h-0.91v4.07h0.62c0.28,0,0.51-0.09,0.69-0.28c0.18-0.18,0.27-0.41,0.27-0.69v-0.37h0.22v3.03h-0.21
			v-0.09c0-0.42-0.09-0.75-0.26-1c-0.17-0.25-0.4-0.37-0.68-0.37h-0.67v4.69h0.74c0.46,0,0.82-0.18,1.05-0.54
			c0.24-0.36,0.42-0.93,0.54-1.7h0.22V137.29z"/>
		<path d="M88.11,136.39c-0.1,0.64-0.41,0.96-0.93,0.96c-0.37,0-0.66-0.15-0.87-0.45c-0.21-0.3-0.31-0.75-0.31-1.33v-2.44
			c0-0.28-0.06-0.48-0.17-0.63c-0.12-0.14-0.29-0.21-0.52-0.21H84.7v4.77h0.64v0.23h-2.51v-0.23h0.64v-9h-0.64v-0.23h2.73
			c0.57,0,1.02,0.19,1.32,0.57c0.31,0.38,0.46,0.91,0.46,1.6c0,0.68-0.11,1.18-0.34,1.5c-0.22,0.32-0.58,0.54-1.06,0.66v0.04h0.12
			c0.35,0,0.63,0.14,0.85,0.43c0.22,0.29,0.33,0.67,0.33,1.16v2.54c0,0.32,0.09,0.49,0.28,0.49c0.2,0,0.32-0.15,0.37-0.46
			L88.11,136.39z M86.02,131.13v-1.87c0-0.4-0.06-0.7-0.19-0.9c-0.13-0.2-0.31-0.3-0.57-0.3H84.7v4.01h0.59
			c0.21,0,0.39-0.09,0.52-0.26C85.95,131.64,86.02,131.41,86.02,131.13z"/>
		<path d="M92.32,128.06h-0.64v9h0.62v0.23h-2.49v-0.23h0.64v-9h-0.64v-0.23h2.51V128.06z M92.44,124.72l-1.54,2.51h-0.23l0.36-2.51
			H92.44z"/>
		<path d="M99.53,137.29h-2.45v-0.23h0.61l-0.52-2.42h-1.7c-0.25,1.22-0.37,1.88-0.37,1.98c0,0.29,0.16,0.44,0.47,0.44h0.34v0.23
			h-1.93v-0.23h0.19c0.36,0,0.59-0.25,0.7-0.75l1.73-8.6h0.28l2.05,9.36h0.59V137.29z M97.12,134.42l-0.84-3.91l-0.78,3.91H97.12z"
			/>
	</g>
</g>
</svg>
